<?xml version="1.0" encoding="UTF-8"?>
<svg width="18px" height="19px" viewBox="0 0 18 19" version="1.1" xmlns="http://www.w3.org/2000/svg" xmlns:xlink="http://www.w3.org/1999/xlink">
    <title>codepen</title>
    <g id="Page-1" stroke="none" stroke-width="1" fill="none" fill-rule="evenodd">
        <g id="codepen" transform="translate(0.000000, 0.600000)" fill="#0D7F6E" fill-rule="nonzero">
            <path d="M17.6585161,5.61458243 L9.43192606,0.130189099 C9.15113215,-0.042604447 8.85145928,-0.0441864836 8.56809895,0.130189099 L0.341508954,5.61458243 C0.130570749,5.75517275 0,6.00632984 0,6.25741661 L0,11.7417748 C0,11.9928967 0.130570749,12.2440187 0.34154411,12.3846441 L8.56813411,17.8698109 C8.84892802,18.0426044 9.1486009,18.0441865 9.43196122,17.8698109 L17.6585512,12.3846441 C17.8694894,12.2440538 18.0000953,11.9928967 18.0000953,11.7417748 L18.0000953,6.25741661 C18.0000953,6.00632984 17.8694894,5.75517275 17.6585161,5.61458243 Z M9.77347017,2.21942655 L15.8304201,6.25741661 L13.1284072,8.06547344 L9.77347017,5.82548548 L9.77347017,2.21942655 Z M8.22659,2.21942655 L8.22659,5.82548548 L4.871653,8.06547344 L2.16964007,6.25741661 L8.22659,2.21942655 Z M1.54688017,7.70385504 L3.48550775,8.99961328 L1.54688017,10.2953715 L1.54688017,7.70385504 Z M8.22659,15.7798 L2.16964007,11.7418099 L4.871653,9.93375312 L8.22659,12.1737411 L8.22659,15.7798 Z M9.00003009,10.8277444 L6.26785298,8.99961328 L9.00003009,7.17148217 L11.7322072,8.99961328 L9.00003009,10.8277444 Z M9.77347017,15.7798 L9.77347017,12.1737411 L13.1284072,9.93375312 L15.8304201,11.7418099 L9.77347017,15.7798 Z M16.45318,10.2953715 L14.5145524,8.99961328 L16.45318,7.70385504 L16.45318,10.2953715 Z" id="Shape"></path>
        </g>
    </g>
</svg>