<?xml version="1.0" encoding="UTF-8"?>
<svg width="19px" height="16px" viewBox="0 0 19 16" version="1.1" xmlns="http://www.w3.org/2000/svg" xmlns:xlink="http://www.w3.org/1999/xlink">
    <!-- Generator: Sketch 50.2 (55047) - http://www.bohemiancoding.com/sketch -->
    <title>github</title>
    <desc>Created with Sketch.</desc>
    <defs></defs>
    <g id="Web" stroke="none" stroke-width="1" fill="none" fill-rule="evenodd">
        <g id="Desktop" transform="translate(-370.000000, -529.000000)" fill="#0D7F6E" fill-rule="nonzero">
            <g id="Group-3-Copy-3" transform="translate(88.000000, 286.000000)">
                <path d="M294.38,252.109 C293.662,252.109 293.08,252.916 293.08,253.908 C293.08,254.902 293.662,255.709 294.38,255.709 C295.098,255.709 295.68,254.902 295.68,253.908 C295.679,252.916 295.098,252.109 294.38,252.109 Z M298.906,247.426 C299.055,247.061 299.061,244.987 298.271,243 C298.271,243 296.46,243.199 293.72,245.08 C293.145,244.92 292.172,244.842 291.201,244.842 C290.228,244.842 289.256,244.92 288.681,245.08 C285.94,243.199 284.129,243 284.129,243 C283.34,244.987 283.348,247.061 283.495,247.426 C282.567,248.434 282,249.645 282,251.297 C282,258.483 287.963,258.598 289.467,258.598 C289.809,258.598 290.485,258.6 291.201,258.6 C291.916,258.6 292.593,258.598 292.933,258.598 C294.439,258.598 300.4,258.483 300.4,251.297 C300.4,249.645 299.834,248.434 298.906,247.426 Z M291.228,257.715 L291.172,257.715 C287.401,257.715 284.463,257.266 284.463,253.6 C284.463,252.721 284.773,251.907 285.51,251.231 C286.737,250.104 288.815,250.7 291.172,250.7 C291.182,250.7 291.192,250.7 291.201,250.7 C291.211,250.7 291.219,250.7 291.228,250.7 C293.585,250.7 295.664,250.104 296.892,251.231 C297.627,251.907 297.937,252.721 297.937,253.6 C297.937,257.266 295,257.715 291.228,257.715 Z M288.021,252.109 C287.303,252.109 286.721,252.916 286.721,253.908 C286.721,254.902 287.303,255.709 288.021,255.709 C288.74,255.709 289.322,254.902 289.322,253.908 C289.322,252.916 288.74,252.109 288.021,252.109 Z" id="github"></path>
            </g>
        </g>
    </g>
</svg>