<?xml version="1.0" encoding="UTF-8"?>
<svg width="144px" height="144px" viewBox="0 0 144 144" version="1.1" xmlns="http://www.w3.org/2000/svg" xmlns:xlink="http://www.w3.org/1999/xlink">
    <!-- Generator: Sketch 50.2 (55047) - http://www.bohemiancoding.com/sketch -->
    <title>logo</title>
    <desc>Created with Sketch.</desc>
    <defs></defs>
    <g id="Web" stroke="none" stroke-width="1" fill="none" fill-rule="evenodd">
        <g id="Desktop" transform="translate(-88.000000, -67.000000)">
            <g id="logo" transform="translate(88.000000, 67.000000)">
                <circle id="Oval-2" fill="#A9C8C3" cx="72" cy="72" r="72"></circle>
                <circle id="Oval-2" fill="#A9C8C3" cx="72" cy="72" r="41.4202247"></circle>
                <g id="noun_753839_cc" transform="translate(59.285693, 62.243408) rotate(80.000000) translate(-59.285693, -62.243408) translate(41.002546, 40.425811)" fill="#272B2A">
                    <path d="M1.28369075,0 C0.574728245,0 0,0.574841248 0,1.28394386 L0,16.6912702 C0,17.4003728 0.574728245,17.9752141 1.28369075,17.9752141 L16.6879797,17.9752141 C17.3969422,17.9752141 17.9716705,17.4003728 17.9716705,16.6912702 L17.9716705,1.28394386 C17.9716705,0.574841248 17.3969422,0 16.6879797,0 L1.28369075,0 Z M5.77660836,15.4073264 C5.06764586,15.4073264 4.49291762,14.8324851 4.49291762,14.1233825 C4.49291762,13.4142799 5.06764586,12.8394386 5.77660836,12.8394386 C6.48557087,12.8394386 7.06029911,13.4142799 7.06029911,14.1233825 C7.06029911,14.8324851 6.48557087,15.4073264 5.77660836,15.4073264 Z M5.77660836,5.13577545 C5.06764586,5.13577545 4.49291762,4.56093421 4.49291762,3.85183159 C4.49291762,3.14272898 5.06764586,2.56788773 5.77660836,2.56788773 C6.48557087,2.56788773 7.06029911,3.14272898 7.06029911,3.85183159 C7.06029911,4.56093421 6.48557087,5.13577545 5.77660836,5.13577545 Z M5.77660836,10.2715509 C5.06764586,10.2715509 4.49291762,9.69670966 4.49291762,8.98760705 C4.49291762,8.27850443 5.06764586,7.70366318 5.77660836,7.70366318 C6.48557087,7.70366318 7.06029911,8.27850443 7.06029911,8.98760705 C7.06029911,9.69670966 6.48557087,10.2715509 5.77660836,10.2715509 Z M12.1950621,15.4073264 C11.4860996,15.4073264 10.9113714,14.8324851 10.9113714,14.1233825 C10.9113714,13.4142799 11.4860996,12.8394386 12.1950621,12.8394386 C12.9040246,12.8394386 13.4787528,13.4142799 13.4787528,14.1233825 C13.4787528,14.8324851 12.9040246,15.4073264 12.1950621,15.4073264 Z M12.1950621,5.13577545 C11.4860996,5.13577545 10.9113714,4.56093421 10.9113714,3.85183159 C10.9113714,3.14272898 11.4860996,2.56788773 12.1950621,2.56788773 C12.9040246,2.56788773 13.4787528,3.14272898 13.4787528,3.85183159 C13.4787528,4.56093421 12.9040246,5.13577545 12.1950621,5.13577545 Z M12.1950621,10.2715509 C11.4860996,10.2715509 10.9113714,9.69670966 10.9113714,8.98760705 C10.9113714,8.27850443 11.4860996,7.70366318 12.1950621,7.70366318 C12.9040246,7.70366318 13.4787528,8.27850443 13.4787528,8.98760705 C13.4787528,9.69670966 12.9040246,10.2715509 12.1950621,10.2715509 Z M25.2978309,19.6541143 C24.7965182,19.152703 23.9837302,19.152703 23.4824175,19.6541143 L12.5899408,30.548739 C12.0886281,31.0501505 12.0886281,31.8630988 12.5899408,32.3645104 L23.4824175,43.2591348 C23.9837302,43.7605464 24.7965182,43.7605464 25.2978309,43.2591348 L36.1903076,32.3645104 C36.6916203,31.8630988 36.6916203,31.0501505 36.1903076,30.548739 L25.2978309,19.6541143 Z M24.3901242,28.246765 C23.6811617,28.246765 23.1064335,27.6719238 23.1064335,26.9628211 C23.1064335,26.2537185 23.6811617,25.6788773 24.3901242,25.6788773 C25.0990867,25.6788773 25.6738149,26.2537185 25.6738149,26.9628211 C25.6738149,27.6719238 25.0990867,28.246765 24.3901242,28.246765 Z M24.3901242,37.234372 C23.6811617,37.234372 23.1064335,36.6595305 23.1064335,35.9504282 C23.1064335,35.2413259 23.6811617,34.6664843 24.3901242,34.6664843 C25.0990867,34.6664843 25.6738149,35.2413259 25.6738149,35.9504282 C25.6738149,36.6595305 25.0990867,37.234372 24.3901242,37.234372 Z" id="Shape"></path>
                </g>
                <path d="M72.0808989,136.557303 C36.7396392,136.557303 8.08988764,107.907552 8.08988764,72.5662921 C8.08988764,37.2250325 36.7396392,8.5752809 72.0808989,8.5752809 C107.422159,8.5752809 136.07191,37.2250325 136.07191,72.5662921 C136.07191,107.907552 107.422159,136.557303 72.0808989,136.557303 Z M72.0808989,111.903098 C93.8060168,111.903098 111.417705,94.29141 111.417705,72.5662921 C111.417705,50.8411743 93.8060168,33.2294865 72.0808989,33.2294865 C50.355781,33.2294865 32.7440932,50.8411743 32.7440932,72.5662921 C32.7440932,94.29141 50.355781,111.903098 72.0808989,111.903098 Z" id="Combined-Shape" fill="#272B2A"></path>
                <g id="noun_1376851_cc" transform="translate(67.469663, 64.557303)" fill="#272B2A" fill-rule="nonzero">
                    <path d="M2.86018853,28.6874237 C4.67253229,27.751848 5.65087716,28.1207321 6.71476037,25.7951583 C4.50680174,25.7951583 4.31968661,22.7585469 6.86979862,22.7585469 C6.89652936,19.7807431 7.83210505,18.1287838 9.13656486,15.8192483 C9.60167963,15.0012879 10.1095636,14.0924429 10.6495244,13.001829 C8.81044991,13.1087519 8.29187367,12.8093677 6.32449165,13.4936745 C5.59206954,13.7449434 4.86499358,13.9962123 4.04168697,14.0496738 C2.60891963,13.6112897 2.18122789,10.9435625 2.21865092,9.66583339 C3.84922569,8.24910449 5.34614679,8.41483505 6.53299138,6.14806881 C7.56479771,4.1699945 9.32368,3.92407174 11.2857159,3.13818816 C11.2696774,1.0050756 11.472831,1.05319092 11.9753688,0 C14.4934039,0.320768807 15.3755182,1.86580523 17.0969774,3.31995716 C18.2357067,4.28226358 19.0590133,5.04676257 19.8662815,6.30845321 C20.7056265,7.60756688 21.6305099,9.03498807 22.1490861,13.2317133 C22.4431242,15.8245945 22.0795862,17.738515 21.6839714,19.7967816 C21.4915101,20.8072033 21.3311257,21.6839714 21.197472,22.7585469 C23.672738,22.7585469 23.5390843,25.7951583 21.3097411,25.7951583 C22.3736243,28.1207321 23.3359307,27.7465018 25.1643129,28.6874237 C26.4901573,29.3717305 26.8536953,31.0343821 26.8964645,32.4457649 L28.152809,32.4457649 L28.152809,35.4877224 C18.7703214,35.4877224 9.38248761,35.4877224 0,35.4877224 L0,32.4457649 L1.13338312,32.4457649 C1.17615229,31.066459 1.50761339,29.3824228 2.86018853,28.6874237 Z" id="Shape"></path>
                </g>
                <g id="Group" transform="translate(14.238202, 13.752809)" fill="#A9C8C3">
                    <g id="Group-2" transform="translate(58.166292, 31.874157) rotate(2.000000) translate(-58.166292, -31.874157) translate(1.132584, 2.103371)">
                        <polygon id="Fill-1" points="1.9123527 44.8977178 9.6614918 48.4946302 1.29396575 49.6298183 0.921146338 52.4860635 8.7063878 55.8063454 0.308836025 57.1758811 0 59.541573 11.4569586 57.5979934 11.8387143 54.6776072 4.03667272 51.4852489 12.3952625 50.4142018 12.7820225 47.4515328 2.21832913 42.552809"></polygon>
                        <path d="M7.80066885,34.0633506 L10.9125577,37.8976535 L12.7397682,33.9724356 L7.80066885,34.0633506 Z M17.8524923,33.8667289 L15.2372928,33.8916223 L12.4694046,39.8389767 L14.1349022,41.8546194 L13.0570574,44.1707865 L5.17752809,34.5150393 L6.43802176,31.8067111 L18.9303371,31.5505618 L17.8524923,33.8667289 Z" id="Fill-2"></path>
                        <polygon id="Fill-3" points="16.2506362 21.1737495 23.1370787 26.925682 21.7126326 28.6382022 14.8258302 22.8862698 12.2260452 26.0126024 10.5168539 24.5850812 17.2387849 16.5033708 18.9476162 17.9305312"></polygon>
                        <path d="M31.5854938,19.829675 C29.313684,21.4360111 28.1021481,21.8183528 25.3084847,21.8426966 L24.989034,19.6170243 C27.5867772,19.4670232 28.7381684,19.0753736 30.8688005,17.5685609 C31.6611248,17.0079363 32.9828657,15.7044663 32.2312381,14.6541008 C31.7050628,13.9187733 30.8126175,14.3390627 30.2061293,14.7153184 C29.2528191,15.3099528 28.3672166,15.9625828 27.4268717,16.575117 C25.7035664,17.6881322 23.4594879,18.035748 22.1064141,16.1455196 C20.4778276,13.8697276 22.5623608,11.6315254 24.3937103,10.3359313 C26.0846024,9.14093468 27.6055049,8.67159956 29.6482609,8.41348315 L29.9731139,10.6094417 C28.1813806,10.8478682 26.7231437,11.4045548 25.2440183,12.4502663 C24.5925117,12.9113675 23.3615278,14.0451465 23.9881843,14.9204512 C24.5143597,15.6557786 25.6761952,15.0189006 26.2344237,14.6501628 C27.0519583,14.1246221 27.8320376,13.5468136 28.6495722,13.0216308 C30.5309822,11.7965624 32.6648556,11.368397 34.1429005,13.4340443 C35.9465187,15.9550648 33.5929554,18.4098557 31.5854938,19.829675" id="Fill-4"></path>
                        <path d="M40.6443534,4.70255912 C38.5163141,5.3932526 36.6112976,7.18719179 37.395463,9.60049701 C38.1724573,11.9937302 40.8161025,12.3342381 42.9233455,11.6499964 C45.0105093,10.9725648 46.8560053,8.99475131 46.1051856,6.68324004 C45.3346454,4.31079578 42.7107209,4.03157927 40.6443534,4.70255912 M43.5662393,13.8374911 C40.2312951,14.9199479 36.396163,13.8364158 35.2337193,10.2567813 C34.070917,6.6778636 36.6256399,3.61042471 39.9197085,2.54122978 C43.2546527,1.45877296 47.0578732,2.30430794 48.2468502,5.96530593 C49.4161065,9.5650125 46.9219799,12.7482241 43.5662393,13.8374911" id="Fill-6"></path>
                        <polygon id="Fill-8" points="61.3789299 11.2984647 55.2328306 3.63622952 55.1392975 11.2217343 52.9078652 11.1947165 53.0454563 0 55.2768887 0.0273779913 61.4237103 7.66763873 61.5165211 0.103387941 63.7483146 0.130765932 63.6107235 11.3258427"></polygon>
                        <path d="M83.995791,8.97785215 L79.4683838,6.70704821 L78.602612,8.41015116 L83.1300192,10.6813124 C83.8234999,11.0285782 84.1997347,11.0492998 84.5795665,10.3029641 C84.9198324,9.63344139 84.5932346,9.27724386 83.995791,8.97785215 M82.1279253,12.6516528 L77.6005181,10.3808489 L76.4523903,12.6387911 L80.9797975,14.9099523 C81.7890981,15.3158103 82.6376048,15.5012331 83.1242642,14.5441085 C83.6008523,13.606991 82.9174429,13.0482218 82.1279253,12.6516528 M79.967992,16.8999425 L73.4561798,13.6337862 L78.4954246,3.72134831 L85.0075965,6.98750464 C85.8748071,7.42230143 86.5582164,7.83744841 86.8920079,8.79743113 C87.1689686,9.58449549 87.0592634,10.4662362 86.689503,11.1932793 C86.2711845,12.0164279 85.9514208,12.3118897 85.0910444,12.6734462 C85.569431,13.7295344 85.6241037,14.5255305 85.089246,15.578046 C84.0188111,17.6830769 81.952397,17.8952949 79.967992,16.8999425" id="Fill-10"></path>
                        <path d="M97.1407245,19.0832926 L93.5349819,15.6476308 L92.0659093,17.196539 L95.9526887,20.9002465 C96.4365171,21.3611412 97.1105749,21.4967831 97.5997873,20.9801205 C98.2824592,20.2601751 97.7024393,19.6183046 97.1407245,19.0832926 Z M92.0127886,26.5277664 L93.1132472,21.2625579 L90.5376143,18.8084109 L87.3920113,22.1253412 L85.752809,20.5642 L93.4387905,12.458427 L98.9647722,17.7236355 C99.573147,18.3039813 99.9363773,18.7986965 100.094304,19.6341355 C100.304274,20.6976832 99.9363773,21.8065647 99.1944831,22.5887544 C98.0373146,23.8095315 96.6231572,23.9217868 95.1580327,23.211196 L94.0575741,28.4764045 L92.0127886,26.5277664 Z" id="Fill-12"></path>
                        <path d="M106.005147,30.5545249 C104.931665,28.5880382 102.81657,27.0468932 100.59298,28.2686728 C98.3887263,29.4800343 98.5455592,32.1466821 99.6082989,34.0937698 C100.661013,36.0218176 102.945831,37.4699191 105.074892,36.2998703 C107.260884,35.0989268 107.047477,32.4638922 106.005147,30.5545249 M97.5798554,35.1341324 C95.8976616,32.0525609 96.2492824,28.0746825 99.5470696,26.2626696 C102.845215,24.4510159 106.330629,26.3941519 107.992055,29.4383623 C109.674607,32.5199338 109.550716,36.4216531 106.177377,38.2749788 C102.86097,40.0970504 99.272075,38.2347438 97.5798554,35.1341324" id="Fill-14"></path>
                        <path d="M102.236096,48.3904947 C101.695876,45.6796087 101.84125,44.4273593 102.960457,41.8917954 L105.126361,42.5127425 C104.201347,44.9229744 104.089713,46.1245196 104.596551,48.667225 C104.785359,49.6131071 105.436853,51.3413327 106.704664,51.0906686 C107.591989,50.9157036 107.572247,49.9369709 107.476407,49.2349685 C107.3217,48.1301897 107.087305,47.0621891 106.91142,45.961338 C106.598056,43.9481695 107.197144,41.7768184 109.47863,41.3265513 C112.224957,40.784874 113.419902,43.5850279 113.855667,45.7706619 C114.257691,47.7881153 114.064935,49.3549445 113.466206,51.307768 L111.325787,50.7036032 C111.839804,48.9860898 111.926669,47.4399706 111.574898,45.6749668 C111.419832,44.8972653 110.886073,43.320438 109.829683,43.5289677 C108.942718,43.7039327 109.050044,45.0150988 109.158806,45.6706819 C109.304898,46.6247767 109.514884,47.5660169 109.661336,48.5201116 C110.01203,50.7221709 109.531396,52.8267497 107.038847,53.318437 C103.996745,53.9183169 102.713499,50.7860867 102.236096,48.3904947" id="Fill-16"></path>
                        <path d="M103.065324,57.6574738 C103.078133,56.7794008 103.813238,56.1315519 104.62413,56.1439965 C105.456726,56.156441 106.151268,56.8478458 106.13917,57.7043239 C106.126361,58.582397 105.391257,59.2302458 104.580009,59.2178013 C103.747413,59.2053567 103.053227,58.5139519 103.065324,57.6574738" id="Fill-19"></path>
                    </g>
                    <path d="M24.888897,106.899138 C21.9364391,104.968599 20.39735,101.415085 22.4744218,98.2187183 C24.527854,95.0582823 28.3958138,94.988218 31.3300046,96.9065409 C32.8784063,97.9190589 34.1621148,99.2987854 34.9483146,100.970626 L32.6298311,102.130818 C32.054956,100.725581 31.3042158,99.591618 30.0079711,98.7443797 C28.1715946,97.5435865 25.6908566,97.4138778 24.376703,99.4363988 C23.0621913,101.45892 24.0622231,103.630911 25.9165085,104.843561 C27.1049417,105.620376 27.9287502,105.77308 29.3127484,105.854642 L30.0402071,104.735052 L27.7539595,103.239629 L28.8918897,101.488023 L33.0865075,104.230589 L30.5287613,108.16784 C28.325611,108.39995 26.7610912,108.123286 24.888897,106.899138" id="Fill-21"></path>
                    <path d="M42.8916282,105.095042 L39.5430534,108.686795 L43.6698232,109.937083 L42.8916282,105.095042 Z M44.4864787,114.947907 L44.0972014,112.380679 L37.8450428,110.487152 L36.0888022,112.403972 L33.6539326,111.666844 L42.0803645,102.579775 L44.9278752,103.442326 L46.9213483,115.685393 L44.4864787,114.947907 Z" id="Fill-23"></path>
                    <polygon id="Fill-25" points="63.3095888 116.331132 63.193997 109.242993 59.3866472 114.890878 55.3538574 109.370443 55.4698082 116.458224 53.2513072 116.494382 53.0696629 105.367948 55.3097028 105.331432 59.3205947 110.852583 63.1279446 105.204698 65.3464456 105.168539 65.5280899 116.294973"></polygon>
                    <polygon id="Fill-27" points="74.4291678 114.391011 70.8674157 103.80681 80.1675659 100.638202 80.8826322 102.762953 73.6537086 105.226068 74.3069525 107.167074 78.1245704 105.866477 78.832847 107.971092 75.0152291 109.271688 75.785328 111.560407 83.2579674 109.01423 83.9730337 111.138981"></polygon>
                    <path d="M93.7971047,105.837877 C91.4956116,107.414708 90.2763467,107.778676 87.4793582,107.756355 L87.1969908,105.513511 C89.8003249,105.406589 90.9593658,105.031461 93.1180524,103.552192 C93.9207982,103.002461 95.2659203,101.714356 94.5313322,100.645495 C94.0167238,99.8977599 93.1162493,100.305288 92.503191,100.672855 C91.5385256,101.255347 90.6409361,101.896159 89.6888926,102.496291 C87.9449219,103.586033 85.6928341,103.897799 84.3704312,101.974641 C82.7790039,99.6594352 84.9034313,97.4443114 86.7588344,96.1727663 C88.4714309,94.9995032 90.001913,94.5534543 92.0513309,94.3280899 L92.3394683,96.5410536 C90.5417649,96.7512978 89.072228,97.2859083 87.5738413,98.3130086 C86.9139021,98.7651775 85.6625418,99.8840796 86.2748789,100.774737 C86.7891267,101.522832 87.9629531,100.90182 88.5284092,100.540733 C89.3556773,100.026282 90.1458014,99.4581912 90.9730695,98.9441011 C92.8775172,97.7441974 95.0210576,97.3499896 96.4653509,99.4513511 C98.2287952,102.016042 95.8306552,104.44465 93.7971047,105.837877" id="Fill-29"></path>
                </g>
            </g>
        </g>
    </g>
</svg>